<svg width="36" height="50" viewBox="0 0 36 50" fill="none" xmlns="http://www.w3.org/2000/svg">
<path d="M12.3274 17.5776L31.3274 10.7924C32.6299 10.3272 34 11.2928 34 12.6759V36.7542C34 37.6041 33.4629 38.3612 32.6607 38.6419L13.6607 45.2919C12.3604 45.7471 11 44.7819 11 43.4042V19.4611C11 18.6159 11.5314 17.8619 12.3274 17.5776Z" fill="white" stroke="black" strokeWidth="4"/>
<path d="M3.32737 10.5776L22.3274 3.79238C23.6299 3.32724 25 4.29284 25 5.67588V29.7542C25 30.6041 24.4629 31.3612 23.6607 31.6419L4.66071 38.2919C3.36035 38.7471 2 37.7819 2 36.4042V12.4611C2 11.6159 2.53136 10.8619 3.32737 10.5776Z" fill="black" stroke="black" strokeWidth="4"/>
</svg>
