<svg width="43" height="49" viewBox="0 0 43 49" fill="none" xmlns="http://www.w3.org/2000/svg">
<path d="M19.3274 16.5776L38.3274 9.79238C39.6299 9.32724 41 10.2928 41 11.6759V35.7542C41 36.6041 40.4629 37.3612 39.6607 37.6419L20.6607 44.2919C19.3604 44.7471 18 43.7819 18 42.4042V18.4611C18 17.6159 18.5314 16.8619 19.3274 16.5776Z" fill="white" stroke="black" stroke-width="4"/>
<path d="M11.3274 13.5776L30.3274 6.79238C31.6299 6.32724 33 7.29284 33 8.67588V32.7542C33 33.6041 32.4629 34.3612 31.6607 34.6419L12.6607 41.2919C11.3604 41.7471 10 40.7819 10 39.4042V15.4611C10 14.6159 10.5314 13.8619 11.3274 13.5776Z" fill="white" stroke="black" stroke-width="4"/>
<path d="M3.32737 10.5776L22.3274 3.79238C23.6299 3.32724 25 4.29284 25 5.67588V29.7542C25 30.6041 24.4629 31.3612 23.6607 31.6419L4.66071 38.2919C3.36035 38.7471 2 37.7819 2 36.4042V12.4611C2 11.6159 2.53136 10.8619 3.32737 10.5776Z" fill="white" stroke="black" stroke-width="4"/>
</svg>
