<svg width="62" height="87" viewBox="0 0 62 87" fill="none" xmlns="http://www.w3.org/2000/svg">
<path d="M18.3274 10.5776L37.3274 3.79238C38.6299 3.32724 40 4.29284 40 5.67588V29.7542C40 30.6041 39.4629 31.3612 38.6607 31.6419L19.6607 38.2919C18.3604 38.7471 17 37.7819 17 36.4042V12.4611C17 11.6159 17.5314 10.8619 18.3274 10.5776Z" fill="white" stroke="black" stroke-width="4"/>
<path d="M3.32737 54.5776L22.3274 47.7924C23.6299 47.3272 25 48.2928 25 49.6759V73.7542C25 74.6041 24.4629 75.3612 23.6607 75.6419L4.66071 82.2919C3.36035 82.7471 2 81.7819 2 80.4042V56.4611C2 55.6159 2.53136 54.8619 3.32737 54.5776Z" fill="white" stroke="black" stroke-width="4"/>
<path d="M38.3274 42.5776L57.3274 35.7924C58.6299 35.3272 60 36.2928 60 37.6759V61.7542C60 62.6041 59.4629 63.3612 58.6607 63.6419L39.6607 70.2919C38.3604 70.7471 37 69.7819 37 68.4042V44.4611C37 43.6159 37.5314 42.8619 38.3274 42.5776Z" fill="white" stroke="black" stroke-width="4"/>
</svg>
