<?xml version="1.0" encoding="utf-8"?>
<!-- Generator: Adobe Illustrator 27.0.0, SVG Export Plug-In . SVG Version: 6.00 Build 0)  -->
<svg version="1.1" id="a" xmlns="http://www.w3.org/2000/svg" xmlns:xlink="http://www.w3.org/1999/xlink" x="0px" y="0px"
	 viewBox="0 0 30.1 32.7" style="enable-background:new 0 0 30.1 32.7;" xml:space="preserve">
<style type="text/css">
	.st0{fill:#FFFFFF;stroke:#000000;stroke-width:1.5;stroke-miterlimit:10;}
	.st1{fill:#FFD056;}
</style>
<path class="st0" d="M10.2,23.8l-2.3,8c0,0.1-0.1,0.2-0.2,0.2h-7c-0.2,0-0.3-0.2-0.2-0.3l2.3-8c0-0.1,0.1-0.2,0.2-0.2h7
	C10.1,23.5,10.3,23.6,10.2,23.8z"/>
<path class="st1" d="M21.4,22.7c0.7,0,1.1,0.6,1,1.3l-2.3,8c-0.1,0.4-0.5,0.7-1,0.7h-7c-0.7,0-1.1-0.6-1-1.3l2.3-8
	c0.1-0.4,0.5-0.7,1-0.7C14.4,22.7,21.4,22.7,21.4,22.7z"/>
<path class="st0" d="M18.2,0.8l-2.5,8c0,0.1-0.1,0.2-0.2,0.2H7.7C7.5,9,7.4,8.8,7.5,8.7l2.5-8c0-0.1,0.1-0.2,0.2-0.2H18
	C18.1,0.5,18.2,0.6,18.2,0.8z"/>
<path class="st0" d="M29.6,0.8l-2.5,8C27.1,8.9,27,9,26.9,9h-7.8c-0.2,0-0.3-0.2-0.2-0.3l2.5-8c0-0.1,0.1-0.2,0.2-0.2h7.7
	C29.5,0.5,29.6,0.6,29.6,0.8z"/>
<path class="st0" d="M14.7,12.3l-2.5,8c0,0.1-0.1,0.2-0.2,0.2H4.2c-0.2,0-0.3-0.2-0.2-0.3l2.5-8c0-0.1,0.1-0.2,0.2-0.2h7.8
	C14.6,11.9,14.7,12.1,14.7,12.3z"/>
<path class="st0" d="M26.1,12.3l-2.5,8c0,0.1-0.1,0.2-0.2,0.2h-7.8c-0.2,0-0.3-0.2-0.2-0.3l2.5-8c0-0.1,0.1-0.2,0.2-0.2h7.8
	C26,12,26.1,12.1,26.1,12.3z"/>
</svg>
