<svg width="32" height="33" viewBox="0 0 32 33" fill="none" xmlns="http://www.w3.org/2000/svg">
<path d="M10.9108 24.0693L8.60191 32.0693C8.57103 32.1763 8.47309 32.25 8.36172 32.25L1.32942 32.25C1.16305 32.25 1.04309 32.0905 1.08923 31.9307L3.39809 23.9307C3.42897 23.8237 3.52691 23.75 3.63828 23.75L10.6706 23.75C10.837 23.75 10.9569 23.9095 10.9108 24.0693Z" fill="white" stroke="black" stroke-width="1.5"/>
<path d="M14.8672 13.0763L12.6225 20.0763C12.5893 20.1798 12.4931 20.25 12.3844 20.25L5.37083 20.25C5.20139 20.25 5.08103 20.085 5.13277 19.9237L7.3775 12.9237C7.41068 12.8202 7.5069 12.75 7.61556 12.75L14.6292 12.75C14.7986 12.75 14.919 12.915 14.8672 13.0763Z" fill="white" stroke="black" stroke-width="1.5"/>
<path d="M26.8301 13.082L24.3983 20.082C24.3634 20.1826 24.2686 20.25 24.1622 20.25L16.406 20.25C16.2341 20.25 16.1134 20.0804 16.1699 19.918L18.6017 12.918C18.6366 12.8174 18.7314 12.75 18.8378 12.75L26.594 12.75C26.7659 12.75 26.8866 12.9196 26.8301 13.082Z" fill="white" stroke="black" stroke-width="1.5"/>
<path d="M22.6706 23C23.3361 23 23.8159 23.6379 23.6314 24.2773L21.3225 32.2773C21.199 32.7053 20.8072 33 20.3617 33L13.3294 33C12.6639 33 12.1841 32.3621 12.3686 31.7227L14.6775 23.7227C14.801 23.2947 15.1928 23 15.6383 23L22.6706 23Z" fill="#FFC700"/>
<path d="M18.8782 1.0746L16.3769 9.0746C16.3443 9.17896 16.2477 9.25 16.1383 9.25L8.3604 9.25C8.19172 9.25 8.07145 9.08639 8.12179 8.9254L10.6231 0.925396C10.6557 0.821045 10.7523 0.75 10.8617 0.75L18.6396 0.75C18.8083 0.75 18.9285 0.913614 18.8782 1.0746Z" fill="white" stroke="black" stroke-width="1.5"/>
<path d="M30.8782 1.0746L28.3769 9.0746C28.3443 9.17895 28.2477 9.25 28.1383 9.25L20.3604 9.25C20.1917 9.25 20.0715 9.08639 20.1218 8.9254L22.6231 0.925396C22.6557 0.821045 22.7523 0.75 22.8617 0.75L30.6396 0.75C30.8083 0.75 30.9285 0.913614 30.8782 1.0746Z" fill="white" stroke="black" stroke-width="1.5"/>
</svg>
