<?xml version="1.0" encoding="utf-8"?>
<!-- Generator: Adobe Illustrator 27.0.0, SVG Export Plug-In . SVG Version: 6.00 Build 0)  -->
<svg version="1.1" id="Layer_1" xmlns="http://www.w3.org/2000/svg" xmlns:xlink="http://www.w3.org/1999/xlink" x="0px" y="0px"
	 viewBox="0 0 32 33" style="enable-background:new 0 0 32 33;" xml:space="preserve">
<path class="st0" d="M10.9,24.1l-2.3,8c0,0.1-0.1,0.2-0.2,0.2h-7c-0.2,0-0.3-0.2-0.2-0.3l2.3-8c0-0.1,0.1-0.2,0.2-0.2h7
	C10.8,23.8,11,23.9,10.9,24.1z"/>
<path class="st1" d="M22.1,23c0.7,0,1.1,0.6,1,1.3l-2.3,8c-0.1,0.4-0.5,0.7-1,0.7h-7c-0.7,0-1.1-0.6-1-1.3l2.3-8
	c0.1-0.4,0.5-0.7,1-0.7H22.1z"/>
<path class="st0" d="M18.9,1.1l-2.5,8c0,0.1-0.1,0.2-0.2,0.2H8.4c-0.2,0-0.3-0.2-0.2-0.3l2.5-8c0-0.1,0.1-0.2,0.2-0.2h7.8
	C18.8,0.8,18.9,0.9,18.9,1.1z"/>
<path class="st0" d="M30.3,1.1l-2.5,8c0,0.1-0.1,0.2-0.2,0.2h-7.8c-0.2,0-0.3-0.2-0.2-0.3l2.5-8c0-0.1,0.1-0.2,0.2-0.2H30
	C30.2,0.8,30.3,0.9,30.3,1.1z"/>
<path class="st0" d="M15.4,12.6l-2.5,8c0,0.1-0.1,0.2-0.2,0.2H4.9c-0.2,0-0.3-0.2-0.2-0.3l2.5-8c0-0.1,0.1-0.2,0.2-0.2h7.8
	C15.3,12.2,15.4,12.4,15.4,12.6z"/>
<path class="st0" d="M26.8,12.6l-2.5,8c0,0.1-0.1,0.2-0.2,0.2h-7.8c-0.2,0-0.3-0.2-0.2-0.3l2.5-8c0-0.1,0.1-0.2,0.2-0.2h7.8
	C26.7,12.3,26.8,12.4,26.8,12.6z"/>
</svg>
